G04*
G04 #@! TF.GenerationSoftware,Altium Limited,Altium Designer,21.8.1 (53)*
G04*
G04 Layer_Color=65535*
%FSLAX43Y43*%
%MOMM*%
G71*
G04*
G04 #@! TF.SameCoordinates,254FD313-6811-457E-9EF1-8F19C8A8C8A9*
G04*
G04*
G04 #@! TF.FilePolarity,Positive*
G04*
G01*
G75*
%ADD10C,0.250*%
%ADD11C,0.200*%
%ADD12C,0.150*%
%ADD13C,0.254*%
%ADD14C,0.100*%
%ADD15C,0.152*%
D10*
X32125Y60275D02*
G03*
X32125Y60275I-125J0D01*
G01*
X44700Y87500D02*
G03*
X44700Y87500I-125J0D01*
G01*
X20125Y67550D02*
G03*
X20125Y67550I-125J0D01*
G01*
X26475Y37500D02*
G03*
X26475Y37500I-125J0D01*
G01*
X63375Y8730D02*
G03*
X63375Y8730I-125J0D01*
G01*
D11*
X24577Y38600D02*
G03*
X24434Y38835I-2077J-1100D01*
G01*
X20566D02*
G03*
X20371Y38494I1934J-1335D01*
G01*
X20371Y36506D02*
G03*
X24577Y36400I2129J994D01*
G01*
X33900Y60775D02*
Y61100D01*
Y53900D02*
Y54225D01*
X40775Y53900D02*
X41100D01*
X33900D02*
X34225D01*
X41100Y60775D02*
Y61100D01*
Y53900D02*
Y54225D01*
X40775Y61100D02*
X41100D01*
X33900D02*
X34225D01*
X28485Y90575D02*
X43975D01*
Y84425D02*
Y90575D01*
X28485Y84425D02*
X43975D01*
X28485D02*
Y90575D01*
X96785Y83095D02*
X108215D01*
Y86905D01*
X96785D02*
X108215D01*
X96785Y83095D02*
Y86905D01*
X74880Y73732D02*
Y76332D01*
X68880Y71932D02*
X74680D01*
X68680Y73732D02*
Y76332D01*
X68880Y78132D02*
X74680D01*
X135468Y56484D02*
Y58516D01*
X129372Y56484D02*
X135468D01*
X129372D02*
Y58516D01*
X135468D01*
Y57500D02*
X136484D01*
X128356D02*
X129372D01*
X135548Y51484D02*
Y53516D01*
X129452Y51484D02*
X135548D01*
X129452D02*
Y53516D01*
X135548D01*
Y52500D02*
X136564D01*
X128436D02*
X129452D01*
X135548Y46484D02*
Y48516D01*
X129452Y46484D02*
X135548D01*
X129452D02*
Y48516D01*
X135548D01*
Y47500D02*
X136564D01*
X128436D02*
X129452D01*
X135548Y41484D02*
Y43516D01*
X129452Y41484D02*
X135548D01*
X129452D02*
Y43516D01*
X135548D01*
Y42500D02*
X136564D01*
X128436D02*
X129452D01*
X109372Y13984D02*
Y16016D01*
X115468D01*
Y13984D02*
Y16016D01*
X109372Y13984D02*
X115468D01*
X108356Y15000D02*
X109372D01*
X115468D02*
X116484D01*
X109452Y18984D02*
Y21016D01*
X115548D01*
Y18984D02*
Y21016D01*
X109452Y18984D02*
X115548D01*
X108436Y20000D02*
X109452D01*
X115548D02*
X116564D01*
X127032Y13984D02*
Y16016D01*
X133128D01*
Y13984D02*
Y16016D01*
X127032Y13984D02*
X133128D01*
X126016Y15000D02*
X127032D01*
X133128D02*
X134144D01*
X127032Y18984D02*
Y21016D01*
X133128D01*
Y18984D02*
Y21016D01*
X127032Y18984D02*
X133128D01*
X126016Y20000D02*
X127032D01*
X133128D02*
X134144D01*
X105548Y91484D02*
Y93516D01*
X99452Y91484D02*
X105548D01*
X99452D02*
Y93516D01*
X105548D01*
Y92500D02*
X106564D01*
X98436D02*
X99452D01*
X23984Y63048D02*
X26016D01*
Y56952D02*
Y63048D01*
X23984Y56952D02*
X26016D01*
X23984D02*
Y63048D01*
X25000D02*
Y64064D01*
Y55936D02*
Y56952D01*
X105548Y61484D02*
Y63516D01*
X99452Y61484D02*
X105548D01*
X99452D02*
Y63516D01*
X105548D01*
Y62500D02*
X106564D01*
X98436D02*
X99452D01*
X105548Y41484D02*
Y43516D01*
X99452Y41484D02*
X105548D01*
X99452D02*
Y43516D01*
X105548D01*
Y42500D02*
X106564D01*
X98436D02*
X99452D01*
X105548Y56484D02*
Y58516D01*
X99452Y56484D02*
X105548D01*
X99452D02*
Y58516D01*
X105548D01*
Y57500D02*
X106564D01*
X98436D02*
X99452D01*
Y66484D02*
Y68516D01*
X105548D01*
Y66484D02*
Y68516D01*
X99452Y66484D02*
X105548D01*
X98436Y67500D02*
X99452D01*
X105548D02*
X106564D01*
X105548Y51484D02*
Y53516D01*
X99452Y51484D02*
X105548D01*
X99452D02*
Y53516D01*
X105548D01*
Y52500D02*
X106564D01*
X98436D02*
X99452D01*
X105548Y46484D02*
Y48516D01*
X99452Y46484D02*
X105548D01*
X99452D02*
Y48516D01*
X105548D01*
Y47500D02*
X106564D01*
X98436D02*
X99452D01*
X109452Y23984D02*
Y26016D01*
X115548D01*
Y23984D02*
Y26016D01*
X109452Y23984D02*
X115548D01*
X108436Y25000D02*
X109452D01*
X115548D02*
X116564D01*
X135548Y61484D02*
Y63516D01*
X129452Y61484D02*
X135548D01*
X129452D02*
Y63516D01*
X135548D01*
Y62500D02*
X136564D01*
X128436D02*
X129452D01*
X126952Y23984D02*
Y26016D01*
X133048D01*
Y23984D02*
Y26016D01*
X126952Y23984D02*
X133048D01*
X125936Y25000D02*
X126952D01*
X133048D02*
X134064D01*
X109372Y28984D02*
Y31016D01*
X115468D01*
Y28984D02*
Y31016D01*
X109372Y28984D02*
X115468D01*
X108356Y30000D02*
X109372D01*
X115468D02*
X116484D01*
X58048Y73984D02*
Y76016D01*
X51952Y73984D02*
X58048D01*
X51952D02*
Y76016D01*
X58048D01*
Y75000D02*
X59064D01*
X50936D02*
X51952D01*
X127032Y28984D02*
Y31016D01*
X133128D01*
Y28984D02*
Y31016D01*
X127032Y28984D02*
X133128D01*
X126016Y30000D02*
X127032D01*
X133128D02*
X134144D01*
X6484Y35548D02*
X8516D01*
Y29452D02*
Y35548D01*
X6484Y29452D02*
X8516D01*
X6484D02*
Y35548D01*
X7500D02*
Y36564D01*
Y28436D02*
Y29452D01*
X11484D02*
X13516D01*
X11484D02*
Y35548D01*
X13516D01*
Y29452D02*
Y35548D01*
X12500Y28436D02*
Y29452D01*
Y35548D02*
Y36564D01*
X30548Y28984D02*
Y31016D01*
X24452Y28984D02*
X30548D01*
X24452D02*
Y31016D01*
X30548D01*
Y30000D02*
X31564D01*
X23436D02*
X24452D01*
X42968Y73984D02*
Y76016D01*
X36872Y73984D02*
X42968D01*
X36872D02*
Y76016D01*
X42968D01*
Y75000D02*
X43984D01*
X35856D02*
X36872D01*
X28048Y73984D02*
Y76016D01*
X21952Y73984D02*
X28048D01*
X21952D02*
Y76016D01*
X28048D01*
Y75000D02*
X29064D01*
X20936D02*
X21952D01*
X54452Y26484D02*
Y28516D01*
X60548D01*
Y26484D02*
Y28516D01*
X54452Y26484D02*
X60548D01*
X53436Y27500D02*
X54452D01*
X60548D02*
X61564D01*
X121000Y58650D02*
X122700D01*
Y56350D02*
X123200Y56750D01*
X122700Y58650D02*
X123200Y58250D01*
X121000Y56350D02*
X122700D01*
X123200Y56750D02*
Y58250D01*
X117100Y56350D02*
Y58650D01*
X119000D01*
X117100Y56350D02*
X119000D01*
X121000Y53650D02*
X122700D01*
Y51350D02*
X123200Y51750D01*
X122700Y53650D02*
X123200Y53250D01*
X121000Y51350D02*
X122700D01*
X123200Y51750D02*
Y53250D01*
X117100Y51350D02*
Y53650D01*
X119000D01*
X117100Y51350D02*
X119000D01*
X121000Y48650D02*
X122700D01*
Y46350D02*
X123200Y46750D01*
X122700Y48650D02*
X123200Y48250D01*
X121000Y46350D02*
X122700D01*
X123200Y46750D02*
Y48250D01*
X117100Y46350D02*
Y48650D01*
X119000D01*
X117100Y46350D02*
X119000D01*
X121000Y43650D02*
X122700D01*
Y41350D02*
X123200Y41750D01*
X122700Y43650D02*
X123200Y43250D01*
X121000Y41350D02*
X122700D01*
X123200Y41750D02*
Y43250D01*
X117100Y41350D02*
Y43650D01*
X119000D01*
X117100Y41350D02*
X119000D01*
X91000Y93650D02*
X92700D01*
Y91350D02*
X93200Y91750D01*
X92700Y93650D02*
X93200Y93250D01*
X91000Y91350D02*
X92700D01*
X93200Y91750D02*
Y93250D01*
X87100Y91350D02*
Y93650D01*
X89000D01*
X87100Y91350D02*
X89000D01*
X91000Y63650D02*
X92700D01*
Y61350D02*
X93200Y61750D01*
X92700Y63650D02*
X93200Y63250D01*
X91000Y61350D02*
X92700D01*
X93200Y61750D02*
Y63250D01*
X87100Y61350D02*
Y63650D01*
X89000D01*
X87100Y61350D02*
X89000D01*
X91000Y43650D02*
X92700D01*
Y41350D02*
X93200Y41750D01*
X92700Y43650D02*
X93200Y43250D01*
X91000Y41350D02*
X92700D01*
X93200Y41750D02*
Y43250D01*
X87100Y41350D02*
Y43650D01*
X89000D01*
X87100Y41350D02*
X89000D01*
X91000Y58650D02*
X92700D01*
Y56350D02*
X93200Y56750D01*
X92700Y58650D02*
X93200Y58250D01*
X91000Y56350D02*
X92700D01*
X93200Y56750D02*
Y58250D01*
X87100Y56350D02*
Y58650D01*
X89000D01*
X87100Y56350D02*
X89000D01*
X91000Y53650D02*
X92700D01*
Y51350D02*
X93200Y51750D01*
X92700Y53650D02*
X93200Y53250D01*
X91000Y51350D02*
X92700D01*
X93200Y51750D02*
Y53250D01*
X87100Y51350D02*
Y53650D01*
X89000D01*
X87100Y51350D02*
X89000D01*
X91000Y48650D02*
X92700D01*
Y46350D02*
X93200Y46750D01*
X92700Y48650D02*
X93200Y48250D01*
X91000Y46350D02*
X92700D01*
X93200Y46750D02*
Y48250D01*
X87100Y46350D02*
Y48650D01*
X89000D01*
X87100Y46350D02*
X89000D01*
X121000Y63650D02*
X122700D01*
Y61350D02*
X123200Y61750D01*
X122700Y63650D02*
X123200Y63250D01*
X121000Y61350D02*
X122700D01*
X123200Y61750D02*
Y63250D01*
X117100Y61350D02*
Y63650D01*
X119000D01*
X117100Y61350D02*
X119000D01*
X83095Y15595D02*
Y19405D01*
X94525D01*
Y15595D02*
Y19405D01*
X83095Y15595D02*
X94525D01*
X83095Y10595D02*
Y14405D01*
X94525D01*
Y10595D02*
Y14405D01*
X83095Y10595D02*
X94525D01*
X83095Y3095D02*
Y6905D01*
X94525D01*
Y3095D02*
Y6905D01*
X83095Y3095D02*
X94525D01*
X5595Y53095D02*
Y56905D01*
X17025D01*
Y53095D02*
Y56905D01*
X5595Y53095D02*
X17025D01*
X5595Y60595D02*
Y64405D01*
X17025D01*
Y60595D02*
Y64405D01*
X5595Y60595D02*
X17025D01*
X139405Y70595D02*
Y74405D01*
X127975Y70595D02*
X139405D01*
X127975D02*
Y74405D01*
X139405D01*
X59525Y68095D02*
Y71905D01*
X48095Y68095D02*
X59525D01*
X48095D02*
Y71905D01*
X59525D01*
X94525Y23095D02*
Y26905D01*
X83095Y23095D02*
X94525D01*
X83095D02*
Y26905D01*
X94525D01*
X17025Y43095D02*
Y46905D01*
X5595Y43095D02*
X17025D01*
X5595D02*
Y46905D01*
X17025D01*
X17650Y54300D02*
Y65700D01*
Y54300D02*
X18850D01*
X17650Y65700D02*
X18850D01*
X21150D02*
X22350D01*
X21150Y54300D02*
X22350D01*
Y65700D01*
X68880Y56741D02*
X74680D01*
X68680Y52341D02*
Y54941D01*
X68880Y50541D02*
X74680D01*
X74880Y52341D02*
Y54941D01*
X66850Y93875D02*
Y94500D01*
Y90500D02*
Y91125D01*
Y90500D02*
X73150D01*
Y93875D02*
Y94500D01*
Y90500D02*
Y91125D01*
X66850Y94500D02*
X73150D01*
X68880Y35350D02*
X74680D01*
X68680Y30950D02*
Y33550D01*
X68880Y29150D02*
X74680D01*
X74880Y30950D02*
Y33550D01*
X9600Y84400D02*
X15400D01*
X15600Y86200D02*
Y88800D01*
X9600Y90600D02*
X15400D01*
X9400Y86200D02*
Y88800D01*
X20566Y38835D02*
X24434D01*
X61000Y7460D02*
Y7505D01*
Y12495D02*
Y12540D01*
X54000D02*
X61000D01*
X54000Y7460D02*
Y7505D01*
Y12495D02*
Y12540D01*
Y7460D02*
X61000D01*
X57655Y64580D02*
X60345D01*
X57655Y41420D02*
Y64580D01*
Y41420D02*
X60345D01*
Y64580D01*
X17150Y14750D02*
Y15250D01*
X16900Y15000D02*
X17400D01*
D12*
X42300Y15000D02*
G03*
X42300Y15000I-12300J0D01*
G01*
D13*
X145500Y30500D02*
X189500D01*
X145500Y74500D02*
X189500D01*
Y30500D02*
Y74500D01*
X145500Y30500D02*
Y74500D01*
X60754Y41774D02*
X61008Y42028D01*
X61516D01*
X61770Y41774D01*
Y41520D01*
X61516Y41266D01*
X61262D01*
X61516D01*
X61770Y41012D01*
Y40758D01*
X61516Y40504D01*
X61008D01*
X60754Y40758D01*
X62278Y40504D02*
Y40758D01*
X62531D01*
Y40504D01*
X62278D01*
X63547Y41774D02*
X63801Y42028D01*
X64309D01*
X64563Y41774D01*
Y41520D01*
X64309Y41266D01*
X64055D01*
X64309D01*
X64563Y41012D01*
Y40758D01*
X64309Y40504D01*
X63801D01*
X63547Y40758D01*
X65071Y42028D02*
Y41012D01*
X65578Y40504D01*
X66086Y41012D01*
Y42028D01*
X60976Y64020D02*
X60722Y63766D01*
Y63258D01*
X60976Y63004D01*
X61992D01*
X62246Y63258D01*
Y63766D01*
X61992Y64020D01*
X61484D01*
Y63512D01*
X62246Y64527D02*
X60722D01*
X62246Y65543D01*
X60722D01*
Y66051D02*
X62246D01*
Y66813D01*
X61992Y67067D01*
X60976D01*
X60722Y66813D01*
Y66051D01*
X29226Y92520D02*
X28972Y92266D01*
Y91758D01*
X29226Y91504D01*
X30242D01*
X30496Y91758D01*
Y92266D01*
X30242Y92520D01*
X29734D01*
Y92012D01*
X30496Y93028D02*
X28972D01*
X30496Y94043D01*
X28972D01*
Y94551D02*
X30496D01*
Y95313D01*
X30242Y95567D01*
X29226D01*
X28972Y95313D01*
Y94551D01*
X33246Y91754D02*
X31722D01*
Y92516D01*
X31976Y92770D01*
X32484D01*
X32738Y92516D01*
Y91754D01*
Y92262D02*
X33246Y92770D01*
X31976Y94293D02*
X31722Y94039D01*
Y93531D01*
X31976Y93278D01*
X32230D01*
X32484Y93531D01*
Y94039D01*
X32738Y94293D01*
X32992D01*
X33246Y94039D01*
Y93531D01*
X32992Y93278D01*
X31722Y94801D02*
Y95817D01*
Y95309D01*
X33246D01*
X34226Y92520D02*
X33972Y92266D01*
Y91758D01*
X34226Y91504D01*
X34480D01*
X34734Y91758D01*
Y92266D01*
X34988Y92520D01*
X35242D01*
X35496Y92266D01*
Y91758D01*
X35242Y91504D01*
X33972Y93028D02*
X35496D01*
X34988Y93535D01*
X35496Y94043D01*
X33972D01*
Y95313D02*
Y94805D01*
X34226Y94551D01*
X35242D01*
X35496Y94805D01*
Y95313D01*
X35242Y95567D01*
X34226D01*
X33972Y95313D01*
X37476Y92520D02*
X37222Y92266D01*
Y91758D01*
X37476Y91504D01*
X37730D01*
X37984Y91758D01*
Y92266D01*
X38238Y92520D01*
X38492D01*
X38746Y92266D01*
Y91758D01*
X38492Y91504D01*
X37222Y93028D02*
X38746D01*
X38238Y93535D01*
X38746Y94043D01*
X37222D01*
X37476Y95567D02*
X37222Y95313D01*
Y94805D01*
X37476Y94551D01*
X38492D01*
X38746Y94805D01*
Y95313D01*
X38492Y95567D01*
X37222Y96075D02*
X38746D01*
Y97090D01*
X37222Y97598D02*
X38746D01*
X38238D01*
X37222Y98614D01*
X37984Y97852D01*
X38746Y98614D01*
X39976Y93020D02*
X39722Y92766D01*
Y92258D01*
X39976Y92004D01*
X40230D01*
X40484Y92258D01*
Y92766D01*
X40738Y93020D01*
X40992D01*
X41246Y92766D01*
Y92258D01*
X40992Y92004D01*
X39722Y93527D02*
X41246D01*
X40738Y94035D01*
X41246Y94543D01*
X39722D01*
Y95051D02*
X41246D01*
Y95813D01*
X40992Y96067D01*
X39976D01*
X39722Y95813D01*
Y95051D01*
Y96575D02*
Y97082D01*
Y96828D01*
X41246D01*
Y96575D01*
Y97082D01*
X39722Y98606D02*
Y98098D01*
X39976Y97844D01*
X40992D01*
X41246Y98098D01*
Y98606D01*
X40992Y98860D01*
X39976D01*
X39722Y98606D01*
X42976Y92004D02*
X42722Y92258D01*
Y92766D01*
X42976Y93020D01*
X43230D01*
X43484Y92766D01*
Y92512D01*
Y92766D01*
X43738Y93020D01*
X43992D01*
X44246Y92766D01*
Y92258D01*
X43992Y92004D01*
X44246Y93528D02*
X43992D01*
Y93781D01*
X44246D01*
Y93528D01*
X42976Y94797D02*
X42722Y95051D01*
Y95559D01*
X42976Y95813D01*
X43230D01*
X43484Y95559D01*
Y95305D01*
Y95559D01*
X43738Y95813D01*
X43992D01*
X44246Y95559D01*
Y95051D01*
X43992Y94797D01*
X42722Y96321D02*
X43738D01*
X44246Y96828D01*
X43738Y97336D01*
X42722D01*
X32004Y64846D02*
Y63576D01*
X32258Y63322D01*
X32766D01*
X33020Y63576D01*
Y64846D01*
X33528Y63322D02*
X34035D01*
X33781D01*
Y64846D01*
X33528Y64592D01*
X68072Y80391D02*
X67818Y80645D01*
X67310D01*
X67056Y80391D01*
Y80137D01*
X67310Y79883D01*
X67818D01*
X68072Y79629D01*
Y79375D01*
X67818Y79121D01*
X67310D01*
X67056Y79375D01*
X68580Y80645D02*
Y79121D01*
X69087Y79629D01*
X69595Y79121D01*
Y80645D01*
X70865Y79121D02*
Y80645D01*
X70103Y79883D01*
X71119D01*
X126797Y59385D02*
Y60909D01*
X127559D01*
X127812Y60655D01*
Y60147D01*
X127559Y59893D01*
X126797D01*
X127305D02*
X127812Y59385D01*
X129336D02*
X128320D01*
X129336Y60401D01*
Y60655D01*
X129082Y60909D01*
X128574D01*
X128320Y60655D01*
X129844Y59639D02*
X130098Y59385D01*
X130606D01*
X130859Y59639D01*
Y60655D01*
X130606Y60909D01*
X130098D01*
X129844Y60655D01*
Y60401D01*
X130098Y60147D01*
X130859D01*
X17780Y70078D02*
X18796Y68555D01*
Y70078D02*
X17780Y68555D01*
X19304D02*
X19811D01*
X19557D01*
Y70078D01*
X19304Y69824D01*
X68072Y59000D02*
X67818Y59254D01*
X67310D01*
X67056Y59000D01*
Y58746D01*
X67310Y58492D01*
X67818D01*
X68072Y58238D01*
Y57984D01*
X67818Y57730D01*
X67310D01*
X67056Y57984D01*
X68580Y59254D02*
Y57730D01*
X69087Y58238D01*
X69595Y57730D01*
Y59254D01*
X71119D02*
X70103D01*
Y58492D01*
X70611Y58746D01*
X70865D01*
X71119Y58492D01*
Y57984D01*
X70865Y57730D01*
X70357D01*
X70103Y57984D01*
X66827Y96723D02*
X66573Y96977D01*
X66065D01*
X65811Y96723D01*
Y96469D01*
X66065Y96215D01*
X66573D01*
X66827Y95961D01*
Y95707D01*
X66573Y95453D01*
X66065D01*
X65811Y95707D01*
X67335Y96977D02*
Y95453D01*
X67843Y95961D01*
X68351Y95453D01*
Y96977D01*
X68858Y96723D02*
X69112Y96977D01*
X69620D01*
X69874Y96723D01*
Y96469D01*
X69620Y96215D01*
X69366D01*
X69620D01*
X69874Y95961D01*
Y95707D01*
X69620Y95453D01*
X69112D01*
X68858Y95707D01*
X68080Y37617D02*
X67826Y37871D01*
X67318D01*
X67064Y37617D01*
Y37363D01*
X67318Y37109D01*
X67826D01*
X68080Y36855D01*
Y36601D01*
X67826Y36347D01*
X67318D01*
X67064Y36601D01*
X68588Y37871D02*
Y36347D01*
X69095Y36855D01*
X69603Y36347D01*
Y37871D01*
X71127Y36347D02*
X70111D01*
X71127Y37363D01*
Y37617D01*
X70873Y37871D01*
X70365D01*
X70111Y37617D01*
X8788Y92862D02*
X8534Y93116D01*
X8026D01*
X7772Y92862D01*
Y92608D01*
X8026Y92354D01*
X8534D01*
X8788Y92100D01*
Y91846D01*
X8534Y91592D01*
X8026D01*
X7772Y91846D01*
X9296Y93116D02*
Y91592D01*
X9804Y92100D01*
X10312Y91592D01*
Y93116D01*
X10819Y91592D02*
X11327D01*
X11073D01*
Y93116D01*
X10819Y92862D01*
X126873Y54381D02*
Y55905D01*
X127635D01*
X127889Y55651D01*
Y55143D01*
X127635Y54889D01*
X126873D01*
X127381D02*
X127889Y54381D01*
X129412D02*
X128397D01*
X129412Y55397D01*
Y55651D01*
X129158Y55905D01*
X128650D01*
X128397Y55651D01*
X129920D02*
X130174Y55905D01*
X130682D01*
X130936Y55651D01*
Y55397D01*
X130682Y55143D01*
X130936Y54889D01*
Y54635D01*
X130682Y54381D01*
X130174D01*
X129920Y54635D01*
Y54889D01*
X130174Y55143D01*
X129920Y55397D01*
Y55651D01*
X130174Y55143D02*
X130682D01*
X126873Y49378D02*
Y50901D01*
X127635D01*
X127889Y50647D01*
Y50139D01*
X127635Y49885D01*
X126873D01*
X127381D02*
X127889Y49378D01*
X129412D02*
X128397D01*
X129412Y50393D01*
Y50647D01*
X129158Y50901D01*
X128650D01*
X128397Y50647D01*
X129920Y50901D02*
X130936D01*
Y50647D01*
X129920Y49632D01*
Y49378D01*
X126873Y44374D02*
Y45897D01*
X127635D01*
X127889Y45643D01*
Y45136D01*
X127635Y44882D01*
X126873D01*
X127381D02*
X127889Y44374D01*
X129412D02*
X128397D01*
X129412Y45389D01*
Y45643D01*
X129158Y45897D01*
X128650D01*
X128397Y45643D01*
X130936Y45897D02*
X130428Y45643D01*
X129920Y45136D01*
Y44628D01*
X130174Y44374D01*
X130682D01*
X130936Y44628D01*
Y44882D01*
X130682Y45136D01*
X129920D01*
X106782Y16866D02*
Y18389D01*
X107543D01*
X107797Y18135D01*
Y17627D01*
X107543Y17373D01*
X106782D01*
X107289D02*
X107797Y16866D01*
X109321D02*
X108305D01*
X109321Y17881D01*
Y18135D01*
X109067Y18389D01*
X108559D01*
X108305Y18135D01*
X110844Y18389D02*
X109829D01*
Y17627D01*
X110336Y17881D01*
X110590D01*
X110844Y17627D01*
Y17120D01*
X110590Y16866D01*
X110083D01*
X109829Y17120D01*
X106883Y21869D02*
Y23393D01*
X107645D01*
X107899Y23139D01*
Y22631D01*
X107645Y22377D01*
X106883D01*
X107391D02*
X107899Y21869D01*
X109422D02*
X108407D01*
X109422Y22885D01*
Y23139D01*
X109168Y23393D01*
X108661D01*
X108407Y23139D01*
X110692Y21869D02*
Y23393D01*
X109930Y22631D01*
X110946D01*
X124460Y16866D02*
Y18389D01*
X125222D01*
X125476Y18135D01*
Y17627D01*
X125222Y17373D01*
X124460D01*
X124968D02*
X125476Y16866D01*
X126999D02*
X125984D01*
X126999Y17881D01*
Y18135D01*
X126745Y18389D01*
X126237D01*
X125984Y18135D01*
X127507D02*
X127761Y18389D01*
X128269D01*
X128523Y18135D01*
Y17881D01*
X128269Y17627D01*
X128015D01*
X128269D01*
X128523Y17373D01*
Y17120D01*
X128269Y16866D01*
X127761D01*
X127507Y17120D01*
X124460Y21869D02*
Y23393D01*
X125222D01*
X125476Y23139D01*
Y22631D01*
X125222Y22377D01*
X124460D01*
X124968D02*
X125476Y21869D01*
X126999D02*
X125984D01*
X126999Y22885D01*
Y23139D01*
X126745Y23393D01*
X126237D01*
X125984Y23139D01*
X128523Y21869D02*
X127507D01*
X128523Y22885D01*
Y23139D01*
X128269Y23393D01*
X127761D01*
X127507Y23139D01*
X96876Y94386D02*
Y95910D01*
X97637D01*
X97891Y95656D01*
Y95148D01*
X97637Y94894D01*
X96876D01*
X97383D02*
X97891Y94386D01*
X99415D02*
X98399D01*
X99415Y95402D01*
Y95656D01*
X99161Y95910D01*
X98653D01*
X98399Y95656D01*
X99923Y94386D02*
X100430D01*
X100177D01*
Y95910D01*
X99923Y95656D01*
X24130Y66650D02*
Y68173D01*
X24892D01*
X25146Y67919D01*
Y67411D01*
X24892Y67157D01*
X24130D01*
X24638D02*
X25146Y66650D01*
X26669D02*
X25654D01*
X26669Y67665D01*
Y67919D01*
X26415Y68173D01*
X25907D01*
X25654Y67919D01*
X27177D02*
X27431Y68173D01*
X27939D01*
X28193Y67919D01*
Y66904D01*
X27939Y66650D01*
X27431D01*
X27177Y66904D01*
Y67919D01*
X96876Y64389D02*
Y65913D01*
X97637D01*
X97891Y65659D01*
Y65151D01*
X97637Y64897D01*
X96876D01*
X97383D02*
X97891Y64389D01*
X98399D02*
X98907D01*
X98653D01*
Y65913D01*
X98399Y65659D01*
X99669Y64643D02*
X99923Y64389D01*
X100430D01*
X100684Y64643D01*
Y65659D01*
X100430Y65913D01*
X99923D01*
X99669Y65659D01*
Y65405D01*
X99923Y65151D01*
X100684D01*
X96876Y44374D02*
Y45897D01*
X97637D01*
X97891Y45643D01*
Y45136D01*
X97637Y44882D01*
X96876D01*
X97383D02*
X97891Y44374D01*
X98399D02*
X98907D01*
X98653D01*
Y45897D01*
X98399Y45643D01*
X99669D02*
X99923Y45897D01*
X100430D01*
X100684Y45643D01*
Y45389D01*
X100430Y45136D01*
X100684Y44882D01*
Y44628D01*
X100430Y44374D01*
X99923D01*
X99669Y44628D01*
Y44882D01*
X99923Y45136D01*
X99669Y45389D01*
Y45643D01*
X99923Y45136D02*
X100430D01*
X96876Y59385D02*
Y60909D01*
X97637D01*
X97891Y60655D01*
Y60147D01*
X97637Y59893D01*
X96876D01*
X97383D02*
X97891Y59385D01*
X98399D02*
X98907D01*
X98653D01*
Y60909D01*
X98399Y60655D01*
X99669Y60909D02*
X100684D01*
Y60655D01*
X99669Y59639D01*
Y59385D01*
X96876Y69367D02*
Y70891D01*
X97637D01*
X97891Y70637D01*
Y70129D01*
X97637Y69875D01*
X96876D01*
X97383D02*
X97891Y69367D01*
X98399D02*
X98907D01*
X98653D01*
Y70891D01*
X98399Y70637D01*
X100684Y70891D02*
X100177Y70637D01*
X99669Y70129D01*
Y69621D01*
X99923Y69367D01*
X100430D01*
X100684Y69621D01*
Y69875D01*
X100430Y70129D01*
X99669D01*
X96876Y54381D02*
Y55905D01*
X97637D01*
X97891Y55651D01*
Y55143D01*
X97637Y54889D01*
X96876D01*
X97383D02*
X97891Y54381D01*
X98399D02*
X98907D01*
X98653D01*
Y55905D01*
X98399Y55651D01*
X100684Y55905D02*
X99669D01*
Y55143D01*
X100177Y55397D01*
X100430D01*
X100684Y55143D01*
Y54635D01*
X100430Y54381D01*
X99923D01*
X99669Y54635D01*
X96876Y49378D02*
Y50901D01*
X97637D01*
X97891Y50647D01*
Y50139D01*
X97637Y49885D01*
X96876D01*
X97383D02*
X97891Y49378D01*
X98399D02*
X98907D01*
X98653D01*
Y50901D01*
X98399Y50647D01*
X100430Y49378D02*
Y50901D01*
X99669Y50139D01*
X100684D01*
X106883Y26873D02*
Y28397D01*
X107645D01*
X107899Y28143D01*
Y27635D01*
X107645Y27381D01*
X106883D01*
X107391D02*
X107899Y26873D01*
X108407D02*
X108915D01*
X108661D01*
Y28397D01*
X108407Y28143D01*
X109676D02*
X109930Y28397D01*
X110438D01*
X110692Y28143D01*
Y27889D01*
X110438Y27635D01*
X110184D01*
X110438D01*
X110692Y27381D01*
Y27127D01*
X110438Y26873D01*
X109930D01*
X109676Y27127D01*
X126873Y64389D02*
Y65913D01*
X127635D01*
X127889Y65659D01*
Y65151D01*
X127635Y64897D01*
X126873D01*
X127381D02*
X127889Y64389D01*
X128397D02*
X128904D01*
X128650D01*
Y65913D01*
X128397Y65659D01*
X130682Y64389D02*
X129666D01*
X130682Y65405D01*
Y65659D01*
X130428Y65913D01*
X129920D01*
X129666Y65659D01*
X124384Y26873D02*
Y28397D01*
X125146D01*
X125399Y28143D01*
Y27635D01*
X125146Y27381D01*
X124384D01*
X124892D02*
X125399Y26873D01*
X125907D02*
X126415D01*
X126161D01*
Y28397D01*
X125907Y28143D01*
X127177Y26873D02*
X127685D01*
X127431D01*
Y28397D01*
X127177Y28143D01*
X106782Y31877D02*
Y33401D01*
X107543D01*
X107797Y33147D01*
Y32639D01*
X107543Y32385D01*
X106782D01*
X107289D02*
X107797Y31877D01*
X108305D02*
X108813D01*
X108559D01*
Y33401D01*
X108305Y33147D01*
X109575D02*
X109829Y33401D01*
X110336D01*
X110590Y33147D01*
Y32131D01*
X110336Y31877D01*
X109829D01*
X109575Y32131D01*
Y33147D01*
X49378Y76886D02*
Y78409D01*
X50139D01*
X50393Y78155D01*
Y77648D01*
X50139Y77394D01*
X49378D01*
X49885D02*
X50393Y76886D01*
X50901Y77140D02*
X51155Y76886D01*
X51663D01*
X51917Y77140D01*
Y78155D01*
X51663Y78409D01*
X51155D01*
X50901Y78155D01*
Y77901D01*
X51155Y77648D01*
X51917D01*
X124460Y31877D02*
Y33401D01*
X125222D01*
X125476Y33147D01*
Y32639D01*
X125222Y32385D01*
X124460D01*
X124968D02*
X125476Y31877D01*
X125984Y33147D02*
X126237Y33401D01*
X126745D01*
X126999Y33147D01*
Y32893D01*
X126745Y32639D01*
X126999Y32385D01*
Y32131D01*
X126745Y31877D01*
X126237D01*
X125984Y32131D01*
Y32385D01*
X126237Y32639D01*
X125984Y32893D01*
Y33147D01*
X126237Y32639D02*
X126745D01*
X6629Y39141D02*
Y40665D01*
X7391D01*
X7645Y40411D01*
Y39903D01*
X7391Y39649D01*
X6629D01*
X7137D02*
X7645Y39141D01*
X9169Y40665D02*
X8661Y40411D01*
X8153Y39903D01*
Y39395D01*
X8407Y39141D01*
X8915D01*
X9169Y39395D01*
Y39649D01*
X8915Y39903D01*
X8153D01*
X11633Y39141D02*
Y40665D01*
X12395D01*
X12649Y40411D01*
Y39903D01*
X12395Y39649D01*
X11633D01*
X12141D02*
X12649Y39141D01*
X14172Y40665D02*
X13157D01*
Y39903D01*
X13665Y40157D01*
X13918D01*
X14172Y39903D01*
Y39395D01*
X13918Y39141D01*
X13411D01*
X13157Y39395D01*
X21869Y31877D02*
Y33401D01*
X22631D01*
X22885Y33147D01*
Y32639D01*
X22631Y32385D01*
X21869D01*
X22377D02*
X22885Y31877D01*
X24155D02*
Y33401D01*
X23393Y32639D01*
X24409D01*
X34290Y76886D02*
Y78409D01*
X35052D01*
X35306Y78155D01*
Y77648D01*
X35052Y77394D01*
X34290D01*
X34798D02*
X35306Y76886D01*
X35814Y78155D02*
X36067Y78409D01*
X36575D01*
X36829Y78155D01*
Y77901D01*
X36575Y77648D01*
X36321D01*
X36575D01*
X36829Y77394D01*
Y77140D01*
X36575Y76886D01*
X36067D01*
X35814Y77140D01*
X19380Y76886D02*
Y78409D01*
X20142D01*
X20396Y78155D01*
Y77648D01*
X20142Y77394D01*
X19380D01*
X19888D02*
X20396Y76886D01*
X21919D02*
X20904D01*
X21919Y77901D01*
Y78155D01*
X21665Y78409D01*
X21158D01*
X20904Y78155D01*
X51867Y29388D02*
Y30911D01*
X52629D01*
X52882Y30657D01*
Y30150D01*
X52629Y29896D01*
X51867D01*
X52375D02*
X52882Y29388D01*
X53390D02*
X53898D01*
X53644D01*
Y30911D01*
X53390Y30657D01*
X20345Y39980D02*
Y40995D01*
X20091Y41249D01*
X19583D01*
X19329Y40995D01*
Y39980D01*
X19583Y39726D01*
X20091D01*
X19837Y40233D02*
X20345Y39726D01*
X20091D02*
X20345Y39980D01*
X21869Y39726D02*
X20853D01*
X21869Y40741D01*
Y40995D01*
X21615Y41249D01*
X21107D01*
X20853Y40995D01*
X53365Y13767D02*
Y14782D01*
X53111Y15036D01*
X52603D01*
X52349Y14782D01*
Y13767D01*
X52603Y13513D01*
X53111D01*
X52857Y14021D02*
X53365Y13513D01*
X53111D02*
X53365Y13767D01*
X53873Y13513D02*
X54381D01*
X54127D01*
Y15036D01*
X53873Y14782D01*
X56388Y65557D02*
Y67081D01*
X57150D01*
X57404Y66827D01*
Y66319D01*
X57150Y66065D01*
X56388D01*
X57912Y65557D02*
X58419D01*
X58165D01*
Y67081D01*
X57912Y66827D01*
X17043Y29794D02*
Y28270D01*
X18059D01*
X19583Y29540D02*
X19329Y29794D01*
X18821D01*
X18567Y29540D01*
Y29286D01*
X18821Y29032D01*
X19329D01*
X19583Y28778D01*
Y28524D01*
X19329Y28270D01*
X18821D01*
X18567Y28524D01*
X20090Y28270D02*
X20598D01*
X20344D01*
Y29794D01*
X20090Y29540D01*
X26750Y85762D02*
X26242D01*
X26496D01*
Y84492D01*
X26242Y84238D01*
X25988D01*
X25734Y84492D01*
X27258Y84238D02*
X27766D01*
X27512D01*
Y85762D01*
X27258Y85508D01*
X117246Y61036D02*
Y59512D01*
X118008D01*
X118262Y59766D01*
Y60782D01*
X118008Y61036D01*
X117246D01*
X118770Y59512D02*
X119278D01*
X119024D01*
Y61036D01*
X118770Y60782D01*
X120039Y59512D02*
X120547D01*
X120293D01*
Y61036D01*
X120039Y60782D01*
X117246Y56032D02*
Y54508D01*
X118008D01*
X118262Y54762D01*
Y55778D01*
X118008Y56032D01*
X117246D01*
X118770Y54508D02*
X119278D01*
X119024D01*
Y56032D01*
X118770Y55778D01*
X120039D02*
X120293Y56032D01*
X120801D01*
X121055Y55778D01*
Y54762D01*
X120801Y54508D01*
X120293D01*
X120039Y54762D01*
Y55778D01*
X117246Y51028D02*
Y49505D01*
X118008D01*
X118262Y49759D01*
Y50774D01*
X118008Y51028D01*
X117246D01*
X118770Y49759D02*
X119024Y49505D01*
X119532D01*
X119786Y49759D01*
Y50774D01*
X119532Y51028D01*
X119024D01*
X118770Y50774D01*
Y50520D01*
X119024Y50266D01*
X119786D01*
X117246Y46024D02*
Y44501D01*
X118008D01*
X118262Y44755D01*
Y45770D01*
X118008Y46024D01*
X117246D01*
X118770Y45770D02*
X119024Y46024D01*
X119532D01*
X119786Y45770D01*
Y45516D01*
X119532Y45263D01*
X119786Y45009D01*
Y44755D01*
X119532Y44501D01*
X119024D01*
X118770Y44755D01*
Y45009D01*
X119024Y45263D01*
X118770Y45516D01*
Y45770D01*
X119024Y45263D02*
X119532D01*
X87249Y96037D02*
Y94513D01*
X88011D01*
X88265Y94767D01*
Y95783D01*
X88011Y96037D01*
X87249D01*
X88773D02*
X89788D01*
Y95783D01*
X88773Y94767D01*
Y94513D01*
X87249Y66040D02*
Y64516D01*
X88011D01*
X88265Y64770D01*
Y65786D01*
X88011Y66040D01*
X87249D01*
X89788D02*
X89280Y65786D01*
X88773Y65278D01*
Y64770D01*
X89026Y64516D01*
X89534D01*
X89788Y64770D01*
Y65024D01*
X89534Y65278D01*
X88773D01*
X87249Y46024D02*
Y44501D01*
X88011D01*
X88265Y44755D01*
Y45770D01*
X88011Y46024D01*
X87249D01*
X89788D02*
X88773D01*
Y45263D01*
X89280Y45516D01*
X89534D01*
X89788Y45263D01*
Y44755D01*
X89534Y44501D01*
X89026D01*
X88773Y44755D01*
X87249Y61036D02*
Y59512D01*
X88011D01*
X88265Y59766D01*
Y60782D01*
X88011Y61036D01*
X87249D01*
X89534Y59512D02*
Y61036D01*
X88773Y60274D01*
X89788D01*
X87249Y56032D02*
Y54508D01*
X88011D01*
X88265Y54762D01*
Y55778D01*
X88011Y56032D01*
X87249D01*
X88773Y55778D02*
X89026Y56032D01*
X89534D01*
X89788Y55778D01*
Y55524D01*
X89534Y55270D01*
X89280D01*
X89534D01*
X89788Y55016D01*
Y54762D01*
X89534Y54508D01*
X89026D01*
X88773Y54762D01*
X87249Y51028D02*
Y49505D01*
X88011D01*
X88265Y49759D01*
Y50774D01*
X88011Y51028D01*
X87249D01*
X89788Y49505D02*
X88773D01*
X89788Y50520D01*
Y50774D01*
X89534Y51028D01*
X89026D01*
X88773Y50774D01*
X117246Y66040D02*
Y64516D01*
X118008D01*
X118262Y64770D01*
Y65786D01*
X118008Y66040D01*
X117246D01*
X118770Y64516D02*
X119278D01*
X119024D01*
Y66040D01*
X118770Y65786D01*
X84277Y21539D02*
X84023Y21793D01*
X83515D01*
X83261Y21539D01*
Y20523D01*
X83515Y20269D01*
X84023D01*
X84277Y20523D01*
X84785Y20269D02*
X85293D01*
X85039D01*
Y21793D01*
X84785Y21539D01*
X86054D02*
X86308Y21793D01*
X86816D01*
X87070Y21539D01*
Y20523D01*
X86816Y20269D01*
X86308D01*
X86054Y20523D01*
Y21539D01*
X97942Y89027D02*
X97688Y89281D01*
X97180D01*
X96926Y89027D01*
Y88011D01*
X97180Y87757D01*
X97688D01*
X97942Y88011D01*
X98450D02*
X98704Y87757D01*
X99212D01*
X99466Y88011D01*
Y89027D01*
X99212Y89281D01*
X98704D01*
X98450Y89027D01*
Y88773D01*
X98704Y88519D01*
X99466D01*
X84277Y16535D02*
X84023Y16789D01*
X83515D01*
X83261Y16535D01*
Y15519D01*
X83515Y15265D01*
X84023D01*
X84277Y15519D01*
X84785Y16535D02*
X85039Y16789D01*
X85546D01*
X85800Y16535D01*
Y16281D01*
X85546Y16027D01*
X85800Y15773D01*
Y15519D01*
X85546Y15265D01*
X85039D01*
X84785Y15519D01*
Y15773D01*
X85039Y16027D01*
X84785Y16281D01*
Y16535D01*
X85039Y16027D02*
X85546D01*
X84277Y9042D02*
X84023Y9296D01*
X83515D01*
X83261Y9042D01*
Y8026D01*
X83515Y7772D01*
X84023D01*
X84277Y8026D01*
X84785Y9296D02*
X85800D01*
Y9042D01*
X84785Y8026D01*
Y7772D01*
X6756Y59029D02*
X6502Y59283D01*
X5994D01*
X5740Y59029D01*
Y58014D01*
X5994Y57760D01*
X6502D01*
X6756Y58014D01*
X8280Y59283D02*
X7772Y59029D01*
X7264Y58521D01*
Y58014D01*
X7518Y57760D01*
X8026D01*
X8280Y58014D01*
Y58267D01*
X8026Y58521D01*
X7264D01*
X5468Y63262D02*
X5214Y63008D01*
Y62500D01*
X5468Y62246D01*
X6484D01*
X6738Y62500D01*
Y63008D01*
X6484Y63262D01*
X5214Y64786D02*
Y63770D01*
X5976D01*
X5722Y64278D01*
Y64532D01*
X5976Y64786D01*
X6484D01*
X6738Y64532D01*
Y64024D01*
X6484Y63770D01*
X129133Y76530D02*
X128879Y76784D01*
X128372D01*
X128118Y76530D01*
Y75514D01*
X128372Y75260D01*
X128879D01*
X129133Y75514D01*
X130403Y75260D02*
Y76784D01*
X129641Y76022D01*
X130657D01*
X49276Y74041D02*
X49022Y74295D01*
X48514D01*
X48260Y74041D01*
Y73025D01*
X48514Y72771D01*
X49022D01*
X49276Y73025D01*
X49784Y74041D02*
X50037Y74295D01*
X50545D01*
X50799Y74041D01*
Y73787D01*
X50545Y73533D01*
X50291D01*
X50545D01*
X50799Y73279D01*
Y73025D01*
X50545Y72771D01*
X50037D01*
X49784Y73025D01*
X84277Y29032D02*
X84023Y29286D01*
X83515D01*
X83261Y29032D01*
Y28016D01*
X83515Y27762D01*
X84023D01*
X84277Y28016D01*
X85800Y27762D02*
X84785D01*
X85800Y28778D01*
Y29032D01*
X85546Y29286D01*
X85039D01*
X84785Y29032D01*
X6756Y49047D02*
X6502Y49301D01*
X5994D01*
X5740Y49047D01*
Y48031D01*
X5994Y47777D01*
X6502D01*
X6756Y48031D01*
X7264Y47777D02*
X7772D01*
X7518D01*
Y49301D01*
X7264Y49047D01*
X145618Y76657D02*
X146634Y75641D01*
X145618D02*
X146634Y76657D01*
X145618Y76149D02*
X146634D01*
X146126Y75641D02*
Y76657D01*
X147142Y75387D02*
X147650D01*
X147396D01*
Y76911D01*
X147142Y76657D01*
D14*
X25Y101600D02*
X152425D01*
X0Y0D02*
Y101600D01*
Y0D02*
X152400D01*
X120000Y57300D02*
Y57700D01*
X119800Y57500D02*
X120200D01*
X120000Y52300D02*
Y52700D01*
X119800Y52500D02*
X120200D01*
X120000Y47300D02*
Y47700D01*
X119800Y47500D02*
X120200D01*
X120000Y42300D02*
Y42700D01*
X119800Y42500D02*
X120200D01*
X90000Y92300D02*
Y92700D01*
X89800Y92500D02*
X90200D01*
X90000Y62300D02*
Y62700D01*
X89800Y62500D02*
X90200D01*
X90000Y42300D02*
Y42700D01*
X89800Y42500D02*
X90200D01*
X90000Y57300D02*
Y57700D01*
X89800Y57500D02*
X90200D01*
X90000Y52300D02*
Y52700D01*
X89800Y52500D02*
X90200D01*
X90000Y47300D02*
Y47700D01*
X89800Y47500D02*
X90200D01*
X120000Y62300D02*
Y62700D01*
X119800Y62500D02*
X120200D01*
D15*
X57131Y62780D02*
X57300Y62949D01*
Y63288D01*
X57131Y63457D01*
X56454D01*
X56284Y63288D01*
Y62949D01*
X56454Y62780D01*
X56623D01*
X56792Y62949D01*
Y63457D01*
X57300Y42720D02*
Y43059D01*
Y42889D01*
X56284D01*
X56454Y42720D01*
M02*
