M48
;Layer_Color=9474304
;FILE_FORMAT=4:3
METRIC,LZ
;TYPE=PLATED
T1F00S00C0.700
T2F00S00C0.711
T3F00S00C0.800
T4F00S00C0.850
T5F00S00C0.900
T6F00S00C1.100
T7F00S00C1.150
T8F00S00C1.190
T9F00S00C1.300
T10F00S00C3.500
T11F00S00C40.500
%
T01
X0085Y0005
Y00125
X009262
Y0005
Y00175
Y0025
X0085
Y00175
X001512Y0045
X00075
Y0055
Y00625
X001512
Y0055
X005Y007
X005762
X009869Y0085
X010631
X012988Y00725
X01375
T02
X005781Y0010533
X011Y004125
X008Y00455
X008025Y00515
X0065Y00345
X007075Y0026
X006Y0015
X0045Y002625
Y002875
X00475Y003
X0043Y002525
X004125Y0024
X003625Y003625
X0038516Y003975
X0041Y004275
X004125Y0048
X004275Y0048839
X004525Y004925
X0039586Y0049531
X00405Y005115
X004375Y0053766
X003275Y005075
X002825Y005225
X0035734Y00475
X003525Y004575
X003425Y004225
X005Y003875
X0052Y0038
X005375Y0039
Y005425
X00475Y005675
X004675Y0059439
X004975Y0062
X005125Y0065
X00435Y006225
X0038234Y0067
X003725Y006875
X0036Y007025
X0035Y007175
X003175Y007275
X003125Y006775
X002675Y0069
X003Y0061
X00295Y0056226
X0037484Y00575
X0033566Y0078486
X0065Y0075
X0062Y0071
X006513Y0056069
X005475Y005825
X0076149Y0080137
X011Y006125
T03
X0196Y00495
X0198
Y00515
X0196
Y00535
X0198
Y00555
X0196
T04
X013516Y0015
Y002
X013508Y0025
X013516Y003
X013758Y00425
Y00475
Y00525
X012742
Y00475
Y00425
X0125Y003
X012492Y0025
X0125Y002
Y0015
X01175
X011758Y002
Y0025
X01175Y003
X010734
X010742Y0025
Y002
X010734Y0015
X010758Y00425
Y00475
Y00525
X009742
Y00475
Y00425
X009258Y00325
X008242
X006258Y00275
X005242
X003258Y003
X002242
X00125Y002742
X00075
Y003758
X00125
X0025Y005492
Y006508
X003008Y0075
X003484
X0045
X004992
X001992
X006008
X009742Y00675
Y00625
Y00575
X010758
Y00625
Y00675
X012742Y00625
X012734Y00575
X010758Y00925
X009742
X013758Y00625
X01375Y00575
T05
X00199Y00375
X00225
X00251
T06
X0059Y004284
Y004538
Y004792
Y005046
Y0053
Y005554
Y005808
Y006062
Y006316
T07
X00225Y0015
X00375
T08
X002988Y00875
X003242
X003496
X00375
X004004
X004258
T09
X006675Y00925
X007325
T10
X0185Y0035
X015
X0055Y002
X0005Y0015
X015Y007
X0185
X0055Y0095
X0005
T11
X01675Y00525
M30
