G04*
G04 #@! TF.GenerationSoftware,Altium Limited,Altium Designer,21.8.1 (53)*
G04*
G04 Layer_Color=32896*
%FSLAX43Y43*%
%MOMM*%
G71*
G04*
G04 #@! TF.SameCoordinates,254FD313-6811-457E-9EF1-8F19C8A8C8A9*
G04*
G04*
G04 #@! TF.FilePolarity,Positive*
G04*
G01*
G75*
%ADD11C,0.200*%
%ADD13C,0.254*%
%ADD14C,0.100*%
D11*
X90548Y32500D02*
X91564D01*
X83436D02*
X84452D01*
Y33516D02*
X90548D01*
Y31484D02*
Y33516D01*
X84452Y31484D02*
X90548D01*
X84452D02*
Y33516D01*
D13*
X198500Y56500D02*
X199000D01*
X194500Y48500D02*
X199500D01*
X194500D02*
Y57000D01*
X199500Y48500D02*
Y57000D01*
X194500D02*
X199500D01*
X85730Y34738D02*
Y36262D01*
X86492D01*
X86746Y36008D01*
Y35500D01*
X86492Y35246D01*
X85730D01*
X86238D02*
X86746Y34738D01*
X87254Y36262D02*
X88270D01*
Y36008D01*
X87254Y34992D01*
Y34738D01*
D14*
X120000Y57300D02*
Y57700D01*
X119800Y57500D02*
X120200D01*
X120000Y52300D02*
Y52700D01*
X119800Y52500D02*
X120200D01*
X120000Y47300D02*
Y47700D01*
X119800Y47500D02*
X120200D01*
X120000Y42300D02*
Y42700D01*
X119800Y42500D02*
X120200D01*
X90000Y92300D02*
Y92700D01*
X89800Y92500D02*
X90200D01*
X90000Y62300D02*
Y62700D01*
X89800Y62500D02*
X90200D01*
X90000Y42300D02*
Y42700D01*
X89800Y42500D02*
X90200D01*
X90000Y57300D02*
Y57700D01*
X89800Y57500D02*
X90200D01*
X90000Y52300D02*
Y52700D01*
X89800Y52500D02*
X90200D01*
X90000Y47300D02*
Y47700D01*
X89800Y47500D02*
X90200D01*
X120000Y62300D02*
Y62700D01*
X119800Y62500D02*
X120200D01*
M02*
