G04*
G04 #@! TF.GenerationSoftware,Altium Limited,Altium Designer,21.8.1 (53)*
G04*
G04 Layer_Physical_Order=1*
G04 Layer_Color=255*
%FSLAX43Y43*%
%MOMM*%
G71*
G04*
G04 #@! TF.SameCoordinates,254FD313-6811-457E-9EF1-8F19C8A8C8A9*
G04*
G04*
G04 #@! TF.FilePolarity,Positive*
G04*
G01*
G75*
%ADD13C,0.254*%
%ADD14C,0.100*%
%ADD16R,0.300X1.200*%
%ADD17R,1.200X0.300*%
%ADD18R,1.550X1.300*%
%ADD19R,1.500X1.500*%
%ADD20R,1.500X5.500*%
%ADD21R,2.200X1.700*%
%ADD28R,1.840X1.840*%
%ADD29C,1.840*%
%ADD30C,2.000*%
%ADD31R,2.000X2.000*%
%ADD35C,1.750*%
%ADD36R,1.750X1.750*%
%ADD40C,1.400*%
%ADD41C,1.200*%
%ADD42R,1.200X1.200*%
%ADD43R,1.400X1.400*%
%ADD44C,1.600*%
G04:AMPARAMS|DCode=45|XSize=1.6mm|YSize=1.6mm|CornerRadius=0.4mm|HoleSize=0mm|Usage=FLASHONLY|Rotation=90.000|XOffset=0mm|YOffset=0mm|HoleType=Round|Shape=RoundedRectangle|*
%AMROUNDEDRECTD45*
21,1,1.600,0.800,0,0,90.0*
21,1,0.800,1.600,0,0,90.0*
1,1,0.800,0.400,0.400*
1,1,0.800,0.400,-0.400*
1,1,0.800,-0.400,-0.400*
1,1,0.800,-0.400,0.400*
%
%ADD45ROUNDEDRECTD45*%
%ADD46C,1.270*%
%ADD47C,41.000*%
%ADD48C,4.000*%
D13*
X34742Y52011D02*
Y53250D01*
X34210Y51479D02*
X34742Y52011D01*
X34210Y45353D02*
Y51479D01*
X45000Y54750D02*
X46750Y53000D01*
X43274Y56726D02*
X45000Y55000D01*
Y54750D02*
Y55000D01*
X41849Y56726D02*
X43274D01*
X41500Y57234D02*
X44001D01*
X48947Y58274D02*
X49237Y57984D01*
X46213Y58274D02*
X48947D01*
X46189Y58250D02*
X46213Y58274D01*
X42016Y58250D02*
X46189D01*
X41750Y57742D02*
X46399D01*
X47500Y56641D02*
X47649Y56492D01*
X48737Y57766D02*
X49269Y57234D01*
X46399Y57742D02*
X46423Y57766D01*
X47500Y56641D02*
Y56750D01*
X46423Y57766D02*
X48737D01*
X47649Y56492D02*
X56746D01*
X46750Y59439D02*
X85225Y59439D01*
X38773Y52656D02*
X40279Y51150D01*
X38773Y52656D02*
Y53227D01*
X38750Y53250D02*
X38773Y53227D01*
X38258Y51062D02*
Y51250D01*
Y51062D02*
X39586Y49735D01*
Y49531D02*
Y49735D01*
X45500Y70500D02*
X47006Y72006D01*
X45500Y59399D02*
Y70500D01*
X47000Y75000D02*
X47006Y74994D01*
X46851Y78296D02*
X47000Y78147D01*
X40189Y78296D02*
X46851D01*
X47006Y72006D02*
Y74994D01*
X47000Y75000D02*
Y78147D01*
X44781Y73281D02*
Y74781D01*
X44750Y73250D02*
X44781Y73281D01*
X44750Y59750D02*
Y73250D01*
X43879Y59750D02*
X44750D01*
X40279Y51150D02*
X40500D01*
X30790Y56258D02*
X32727D01*
X65000Y56000D02*
X65109Y55891D01*
X67805D01*
X29524Y56250D02*
X30782D01*
X30790Y56258D01*
X29500Y56226D02*
X29524Y56250D01*
X31000Y55750D02*
X32250D01*
X28250Y53000D02*
X31000Y55750D01*
X30000Y42500D02*
X36250Y36250D01*
X30000Y42500D02*
Y53750D01*
X31492Y55242D01*
X39750Y59766D02*
Y61250D01*
X37484Y57500D02*
X39750Y59766D01*
X40500Y57250D02*
Y59601D01*
X40649Y59750D02*
X41500D01*
X41750D01*
X40500Y59601D02*
X40649Y59750D01*
X39750Y56500D02*
X40500Y57250D01*
X38500Y55250D02*
X39750Y56500D01*
X36500Y55250D02*
X38500D01*
X39750Y53250D02*
Y56500D01*
X35000Y56750D02*
X36500Y55250D01*
X41750Y59742D02*
X43871D01*
X43125Y60250D02*
X43500Y60625D01*
Y62250D01*
X41750Y60250D02*
X43125D01*
X44781Y74781D02*
X45000Y75000D01*
X45335Y59234D02*
X45500Y59399D01*
X40114Y78370D02*
X40189Y78296D01*
X40040Y78444D02*
X40114Y78370D01*
X40040Y78444D02*
Y87500D01*
X42000Y59234D02*
X45335D01*
X35750Y61750D02*
Y63250D01*
X36250Y61750D02*
Y64274D01*
X37258Y61750D02*
Y64774D01*
X37766Y61750D02*
Y64984D01*
X39290Y61750D02*
Y67960D01*
X38782Y61750D02*
Y65436D01*
X38274Y61750D02*
Y65226D01*
X38250Y69000D02*
X39290Y67960D01*
X38234Y67000D02*
X38250Y66984D01*
Y65968D02*
Y66984D01*
X31250Y67750D02*
X35750Y63250D01*
X35837Y64687D02*
X36250Y64274D01*
X35837Y64683D02*
Y64687D01*
X33000Y67520D02*
Y69111D01*
Y67520D02*
X35837Y64683D01*
X34984Y67048D02*
Y71734D01*
Y67048D02*
X37258Y64774D01*
X33984Y67266D02*
Y74144D01*
Y67266D02*
X36750Y64500D01*
X35984Y66766D02*
Y67421D01*
X36609Y66891D02*
X38274Y65226D01*
X36609Y66891D02*
Y67954D01*
X38250Y65968D02*
X38782Y65436D01*
X36750Y61750D02*
Y64500D01*
X35984Y66766D02*
X37766Y64984D01*
X35984Y67421D02*
X36000Y67437D01*
Y70250D01*
X37250Y68595D02*
Y68750D01*
X36609Y67954D02*
X37250Y68595D01*
X39250Y69032D02*
X40266Y68016D01*
X40250Y64563D02*
X40266Y64579D01*
Y68016D01*
X40250Y61750D02*
Y64563D01*
X34984Y71734D02*
X35000Y71750D01*
X31750Y70361D02*
Y72750D01*
Y70361D02*
X33000Y69111D01*
X34750Y61750D02*
Y62750D01*
X34000Y63500D02*
X34750Y62750D01*
X32500Y63500D02*
X34000D01*
X30080Y61080D02*
X32500Y63500D01*
X49875Y69875D02*
X50000Y70000D01*
X49750Y62000D02*
X49875Y62125D01*
Y69875D01*
X50000Y70000D02*
Y72441D01*
X33984Y74144D02*
X34840Y75000D01*
X39250Y69032D02*
Y77160D01*
X49237Y57984D02*
X51723D01*
X51989Y58250D02*
X54750D01*
X51723Y57984D02*
X51989Y58250D01*
X55171Y57234D02*
X56017Y58080D01*
X49269Y57234D02*
X55171D01*
X51250Y63750D02*
X53021Y61979D01*
X51250Y63750D02*
Y65000D01*
X54171Y37984D02*
X54187Y38000D01*
X52000D02*
X52016Y37984D01*
X54171D01*
X74984Y40016D02*
X75000Y40000D01*
X41234Y40016D02*
X74984D01*
X41000Y40250D02*
X41234Y40016D01*
X75000Y40000D02*
X108750D01*
X53750Y39000D02*
X109187D01*
X53750Y54250D02*
X59420D01*
X65000Y34500D02*
X67805D01*
X67805Y34500D01*
X65000Y75000D02*
Y76250D01*
X66032Y77282D02*
X67805D01*
X65000Y76250D02*
X66032Y77282D01*
X109187Y39000D02*
X111535Y41348D01*
X54187Y38000D02*
X111500D01*
X41000Y40250D02*
Y42750D01*
X111500Y38000D02*
X116000Y42500D01*
X108750Y40000D02*
X110000Y41250D01*
X75755Y51391D02*
X80141D01*
X80250Y51500D01*
X59120Y45500D02*
X80000D01*
X110000Y61250D02*
X111250Y62500D01*
X106609Y55000D02*
X109109Y52500D01*
X118250D01*
X82750Y55000D02*
X106609D01*
X81250Y53500D02*
X82750Y55000D01*
X79437Y49250D02*
X82687Y52500D01*
X45250Y49250D02*
X79437D01*
X60170Y53500D02*
X81250D01*
X59420Y54250D02*
X60170Y53500D01*
X59000Y45380D02*
X59120Y45500D01*
X38572Y49108D02*
X41199Y46480D01*
X52811Y46561D02*
X67799D01*
X67962Y46399D01*
X52750Y46500D02*
X52811Y46561D01*
X77250Y46500D02*
X78250Y47500D01*
X41629Y46480D02*
X41649Y46500D01*
X41199Y46480D02*
X41629D01*
X67962Y46399D02*
X77250D01*
X41649Y46500D02*
X52750D01*
X77250Y46399D02*
Y46500D01*
X66116Y84582D02*
X66750Y85216D01*
X62000Y71000D02*
Y80750D01*
X66000Y84750D01*
X82687Y52500D02*
X88250D01*
X116000Y42500D02*
X118250D01*
X111535Y41348D02*
Y46386D01*
X112649Y47500D01*
X118250D01*
X46750Y53000D02*
X59000D01*
X56975Y56721D02*
X61971D01*
X56746Y56492D02*
X56975Y56721D01*
X62750Y57500D02*
X88250D01*
X61971Y56721D02*
X62750Y57500D01*
X85225Y59439D02*
X85786Y60000D01*
X112500D01*
X115000Y57500D01*
X118250D01*
X42250Y52250D02*
X43750Y53750D01*
Y53766D01*
X40250Y52250D02*
X42250D01*
X40250Y52250D02*
Y53250D01*
X38500Y49180D02*
X38572Y49108D01*
X41427Y47823D02*
X49980D01*
X50117Y47960D01*
X43597Y49034D02*
X45023Y50460D01*
X38250Y50000D02*
X38487Y49289D01*
X41250Y48000D02*
X41427Y47823D01*
X50117Y47960D02*
X58960D01*
X42944Y49034D02*
X43597D01*
X38487Y49289D02*
X38500Y49180D01*
X42750Y48839D02*
X42944Y49034D01*
X35726Y51226D02*
Y52008D01*
X36742Y50343D02*
Y53000D01*
X36500Y49229D02*
Y50101D01*
X35750Y50500D02*
X36234Y50984D01*
X36500Y50101D02*
X36742Y50343D01*
X36234Y50984D02*
Y52269D01*
X35250Y50750D02*
X35726Y51226D01*
X36500Y49229D02*
X39024Y46705D01*
Y41226D02*
Y46705D01*
Y41226D02*
X41500Y38750D01*
X50000D01*
X39380Y47250D02*
X39383D01*
X37635Y48994D02*
Y49865D01*
Y48994D02*
X39380Y47250D01*
X39383D02*
X39532Y47101D01*
X35817Y49194D02*
X36750Y48261D01*
X38516Y39750D02*
Y44234D01*
X35250Y48157D02*
X35734Y47673D01*
X36750Y46000D02*
X38516Y44234D01*
X34718Y47079D02*
Y51234D01*
X35734Y47500D02*
Y47673D01*
X34718Y47079D02*
X35056Y46742D01*
X36750Y46000D02*
Y48261D01*
X34718Y51234D02*
X35250Y51766D01*
X34210Y45353D02*
X34250Y45313D01*
X35056Y45944D02*
Y46742D01*
X35750Y49250D02*
Y50500D01*
X35250Y48157D02*
Y50750D01*
X35056Y45944D02*
X35250Y45750D01*
X34250Y42250D02*
Y45313D01*
X42500Y60250D02*
X42500Y60250D01*
X41750Y60250D02*
X42500D01*
X26750Y69000D02*
Y78000D01*
X28500Y79750D01*
X31840D02*
X32420Y80330D01*
X28500Y79750D02*
X31840D01*
X32420Y80330D02*
Y87500D01*
X37500Y78910D02*
Y87500D01*
Y78910D02*
X39250Y77160D01*
X34960Y79680D02*
X38250Y76390D01*
Y69000D02*
Y76390D01*
X34960Y79680D02*
Y87500D01*
X30000Y61000D02*
X30080Y61080D01*
X28250Y52250D02*
Y53000D01*
Y57242D02*
Y57250D01*
Y56250D02*
Y57242D01*
X30404Y57758D02*
X30412Y57750D01*
X28008Y57758D02*
X30404D01*
X17000Y45000D02*
X28250Y56250D01*
X25085Y54835D02*
X28008Y57758D01*
X30412Y57750D02*
X33250D01*
X15120Y45000D02*
X17000D01*
X30080Y61080D02*
Y75000D01*
X31758Y57250D02*
X33250D01*
X28250Y57242D02*
X31750D01*
X32468Y58250D02*
X32777D01*
X25219Y64031D02*
X30992Y58258D01*
X32460D02*
X32468Y58250D01*
X30992Y58258D02*
X32460D01*
X32777Y58250D02*
X33250D01*
X32777Y58250D02*
X32777Y58250D01*
X25219Y64031D02*
Y64861D01*
X25000Y65080D02*
X25219Y64861D01*
X35000Y56750D02*
X35250Y57000D01*
Y61750D01*
X33250Y56750D02*
X35000D01*
X46628Y15952D02*
X51310Y11270D01*
X41548Y15952D02*
X46628D01*
X32580Y30000D02*
X37263Y25317D01*
Y20237D02*
Y25317D01*
X45023Y50460D02*
X59000D01*
X40319Y44069D02*
X76236D01*
X77805Y42500D01*
X39532Y44856D02*
X40319Y44069D01*
X111250Y62500D02*
X118250D01*
X37750Y50500D02*
X38250Y50000D01*
X37750Y50500D02*
X37750D01*
X37250Y50250D02*
X37635Y49865D01*
X37250Y50250D02*
Y51000D01*
X37250Y51000D01*
Y53250D01*
X37750Y50500D02*
Y52418D01*
X38250Y51250D02*
Y52750D01*
X39532Y44856D02*
Y47101D01*
X37750Y52418D02*
X37750Y52418D01*
Y53250D01*
X35250Y52000D02*
Y53250D01*
X35750Y52008D02*
Y53250D01*
X36250Y52269D02*
Y53250D01*
X35250Y51766D02*
Y52000D01*
X58960Y47960D02*
X59000Y47920D01*
X47500Y30000D02*
X64437D01*
X69453Y24984D01*
X78250Y47500D02*
X88250D01*
X77805Y42500D02*
X88250D01*
X44001Y57234D02*
X45695Y55540D01*
X57694D01*
X57694Y55540D01*
X56017Y58080D02*
X59000D01*
X57694Y55540D02*
X59000D01*
X45000Y28750D02*
X45750D01*
X68210Y25508D02*
X69242Y24476D01*
X71976D02*
X75000Y27500D01*
X69453Y24984D02*
X71766D01*
X74790Y28008D02*
X78646D01*
X71766Y24984D02*
X74790Y28008D01*
X69242Y24476D02*
X71976D01*
X78646Y28008D02*
X80388Y29750D01*
X70750Y26000D02*
Y30188D01*
X71000Y30438D02*
Y34351D01*
X70750Y30188D02*
X71000Y30438D01*
X67805Y34500D02*
X70851D01*
X71000Y34351D01*
X79920Y30000D02*
X82420Y32500D01*
X75755Y30000D02*
X79920D01*
X89830Y29750D02*
X92580Y32500D01*
X80388Y29750D02*
X89830D01*
X45750Y28750D02*
X48992Y25508D01*
X68210D01*
X32493Y54750D02*
X33250D01*
X31984Y54734D02*
X32477D01*
X32481Y54731D01*
X31750Y54500D02*
X31984Y54734D01*
X31750Y51750D02*
Y54500D01*
Y51750D02*
X32750Y50750D01*
X75000Y27500D02*
X116250D01*
X68000Y25000D02*
X70500Y22500D01*
X116250D01*
X124920Y25000D02*
X125000D01*
X116250Y22500D02*
X117580Y23830D01*
X116250Y27500D02*
X117500Y28750D01*
Y30000D01*
X32250Y55750D02*
X33250D01*
X32460Y55242D02*
X32468Y55250D01*
X31492Y55242D02*
X32460D01*
X32777Y55250D02*
X32777Y55250D01*
X32468Y55250D02*
X32777D01*
X32777Y55250D02*
X33250D01*
X45000Y25858D02*
Y26250D01*
Y25858D02*
X45858Y25000D01*
X68000D01*
X105000Y17500D02*
X116250D01*
X70468Y20000D02*
X102500D01*
X75250Y14500D02*
X98750D01*
X66197Y24271D02*
X70468Y20000D01*
X61600Y11270D02*
X91390D01*
X98750Y14500D02*
X100000Y13250D01*
X102500Y20000D02*
X105000Y17500D01*
X66245Y23505D02*
X75250Y14500D01*
X41250Y24000D02*
X41412D01*
X91390Y11270D02*
X92620Y12500D01*
X41907Y23505D02*
X66245D01*
X41412Y24000D02*
X41907Y23505D01*
X117580Y23830D02*
Y25000D01*
X43878Y24271D02*
X66197D01*
X43000Y25149D02*
Y25250D01*
Y25149D02*
X43878Y24271D01*
X20830Y65080D02*
X25000D01*
X37263Y20237D02*
X41548Y15952D01*
X51310Y11270D02*
X53400D01*
X116250Y17500D02*
X117580Y18830D01*
Y20000D01*
X100000Y13250D02*
X115750D01*
X117500Y15000D01*
X73329Y62500D02*
X88250D01*
X72808Y61979D02*
X73329Y62500D01*
X53021Y61979D02*
X72808D01*
X88250Y62500D02*
X88250Y62500D01*
X60000Y15000D02*
X60096Y14904D01*
Y8730D02*
Y14904D01*
X67805Y77282D02*
Y87055D01*
X73250Y92500D01*
X30080Y75000D02*
Y77470D01*
X31096Y78486D01*
X33566D01*
X56007Y8730D02*
X57810Y10533D01*
X53400Y8730D02*
X56007D01*
X135080Y25000D02*
X192351D01*
X192500Y48000D01*
X196000Y51500D01*
X14163Y87500D02*
X29880D01*
X11913Y89750D02*
X14163Y87500D01*
X8525Y89750D02*
X11913D01*
X7500Y45000D02*
X8585Y43915D01*
Y28505D02*
Y43915D01*
X7500Y27420D02*
X8585Y28505D01*
X60096Y8730D02*
X61600D01*
X16475Y78445D02*
Y85250D01*
Y78445D02*
X19920Y75000D01*
X20000Y64250D02*
X20830Y65080D01*
X20830Y54920D02*
X25000D01*
X20000Y55750D02*
X20830Y54920D01*
X15870Y55750D02*
X20000D01*
X15120Y55000D02*
X15870Y55750D01*
X16870Y64250D02*
X20000D01*
X15120Y62500D02*
X16870Y64250D01*
X57620Y64540D02*
Y70000D01*
Y64540D02*
X59000Y63160D01*
X135160Y15000D02*
X190000D01*
X202395Y27395D01*
Y51105D01*
X198000Y55500D02*
X202395Y51105D01*
X196000Y23500D02*
Y49500D01*
X192500Y20000D02*
X196000Y23500D01*
X135160Y20000D02*
X192500D01*
X197000Y52500D02*
X198000Y53500D01*
X192500Y52500D02*
X197000D01*
X190000Y50000D02*
X192500Y52500D01*
X190000Y27649D02*
Y50000D01*
X189851Y27500D02*
X190000Y27649D01*
X140000Y27500D02*
X189851D01*
X137500Y30000D02*
X140000Y27500D01*
X135160Y30000D02*
X137500D01*
X95750Y85000D02*
X98690D01*
X88250Y92500D02*
X95750Y85000D01*
X75755Y72782D02*
X76581D01*
X76937Y73137D01*
Y79350D01*
X76149Y80137D02*
X76937Y79350D01*
X6350Y63650D02*
X7500Y62500D01*
X6350Y63650D02*
Y88646D01*
X7454Y89750D01*
X8525D01*
X106310Y63770D02*
Y85000D01*
Y63770D02*
X107580Y62500D01*
X66750Y85216D02*
Y92500D01*
X73250D02*
X88250D01*
X49920Y72521D02*
Y75000D01*
Y72521D02*
X50000Y72441D01*
X7500Y45000D02*
Y55000D01*
Y62500D01*
X22500Y33786D02*
Y37500D01*
X22420Y33706D02*
X22500Y33786D01*
X22420Y30000D02*
Y33706D01*
X117580Y25000D02*
X124920D01*
X117500Y30000D02*
X125000D01*
X117580Y20000D02*
X125000D01*
X117500Y15000D02*
X125000D01*
X107580Y67500D02*
X112580Y72500D01*
X129880D01*
X121750Y62500D02*
X127420D01*
X91750Y47500D02*
X97420D01*
X91750Y52500D02*
X97420D01*
X91750Y57500D02*
X97420D01*
X91750Y42500D02*
X97420D01*
X91750Y62500D02*
X97420D01*
X91750Y92500D02*
X97420D01*
X121750Y42500D02*
X127420D01*
X121750Y47500D02*
X127420D01*
X121750Y52500D02*
X127420D01*
X121750Y57500D02*
X127340D01*
D14*
X120000Y57300D02*
Y57700D01*
X119800Y57500D02*
X120200D01*
X120000Y52300D02*
Y52700D01*
X119800Y52500D02*
X120200D01*
X120000Y47300D02*
Y47700D01*
X119800Y47500D02*
X120200D01*
X120000Y42300D02*
Y42700D01*
X119800Y42500D02*
X120200D01*
X90000Y92300D02*
Y92700D01*
X89800Y92500D02*
X90200D01*
X90000Y62300D02*
Y62700D01*
X89800Y62500D02*
X90200D01*
X90000Y42300D02*
Y42700D01*
X89800Y42500D02*
X90200D01*
X90000Y57300D02*
Y57700D01*
X89800Y57500D02*
X90200D01*
X90000Y52300D02*
Y52700D01*
X89800Y52500D02*
X90200D01*
X90000Y47300D02*
Y47700D01*
X89800Y47500D02*
X90200D01*
X120000Y62300D02*
Y62700D01*
X119800Y62500D02*
X120200D01*
D16*
X34750Y61750D02*
D03*
X35250D02*
D03*
X35750D02*
D03*
X36250D02*
D03*
X36750D02*
D03*
X37250D02*
D03*
X37750D02*
D03*
X38250D02*
D03*
X38750D02*
D03*
X39250D02*
D03*
X39750D02*
D03*
X40250D02*
D03*
Y53250D02*
D03*
X39750D02*
D03*
X39250D02*
D03*
X38750D02*
D03*
X38250D02*
D03*
X37750D02*
D03*
X37250D02*
D03*
X36750D02*
D03*
X36250D02*
D03*
X35750D02*
D03*
X35250D02*
D03*
X34750D02*
D03*
D17*
X41750Y60250D02*
D03*
Y59750D02*
D03*
Y59250D02*
D03*
Y58750D02*
D03*
Y58250D02*
D03*
Y57750D02*
D03*
Y57250D02*
D03*
Y56750D02*
D03*
Y56250D02*
D03*
Y55750D02*
D03*
Y55250D02*
D03*
Y54750D02*
D03*
X33250D02*
D03*
Y55250D02*
D03*
Y55750D02*
D03*
Y56250D02*
D03*
Y56750D02*
D03*
Y57250D02*
D03*
Y57750D02*
D03*
Y58250D02*
D03*
Y58750D02*
D03*
Y59250D02*
D03*
Y59750D02*
D03*
Y60250D02*
D03*
D18*
X67805Y77282D02*
D03*
Y72782D02*
D03*
X75755Y77282D02*
D03*
Y72782D02*
D03*
Y51391D02*
D03*
Y55891D02*
D03*
X67805Y51391D02*
D03*
Y55891D02*
D03*
X75755Y30000D02*
D03*
Y34500D02*
D03*
X67805Y30000D02*
D03*
Y34500D02*
D03*
X8525Y89750D02*
D03*
Y85250D02*
D03*
X16475Y89750D02*
D03*
Y85250D02*
D03*
D19*
X118250Y57500D02*
D03*
X121750D02*
D03*
X118250Y52500D02*
D03*
X121750D02*
D03*
X118250Y47500D02*
D03*
X121750D02*
D03*
X118250Y42500D02*
D03*
X121750D02*
D03*
X88250Y92500D02*
D03*
X91750D02*
D03*
X88250Y62500D02*
D03*
X91750D02*
D03*
X88250Y42500D02*
D03*
X91750D02*
D03*
X88250Y57500D02*
D03*
X91750D02*
D03*
X88250Y52500D02*
D03*
X91750D02*
D03*
X88250Y47500D02*
D03*
X91750D02*
D03*
X118250Y62500D02*
D03*
X121750D02*
D03*
D20*
X20000Y55750D02*
D03*
Y64250D02*
D03*
D21*
X53400Y8730D02*
D03*
Y11270D02*
D03*
X61600D02*
D03*
Y8730D02*
D03*
D28*
X42580Y87500D02*
D03*
D29*
X40040D02*
D03*
X37500D02*
D03*
X34960D02*
D03*
X32420D02*
D03*
X29880D02*
D03*
D30*
X73250Y92500D02*
D03*
D31*
X66750D02*
D03*
D35*
X22500Y15000D02*
D03*
D36*
X37500D02*
D03*
D40*
X92580Y32500D02*
D03*
X82420D02*
D03*
X137500Y57500D02*
D03*
X127340D02*
D03*
X137580Y52500D02*
D03*
X127420D02*
D03*
X137580Y47500D02*
D03*
X127420D02*
D03*
X137580Y42500D02*
D03*
X127420D02*
D03*
X107340Y15000D02*
D03*
X117500D02*
D03*
X107420Y20000D02*
D03*
X117580D02*
D03*
X125000Y15000D02*
D03*
X135160D02*
D03*
X125000Y20000D02*
D03*
X135160D02*
D03*
X107580Y92500D02*
D03*
X97420D02*
D03*
X25000Y65080D02*
D03*
Y54920D02*
D03*
X107580Y62500D02*
D03*
X97420D02*
D03*
X107580Y42500D02*
D03*
X97420D02*
D03*
X107580Y57500D02*
D03*
X97420D02*
D03*
Y67500D02*
D03*
X107580D02*
D03*
Y52500D02*
D03*
X97420D02*
D03*
X107580Y47500D02*
D03*
X97420D02*
D03*
X107420Y25000D02*
D03*
X117580D02*
D03*
X137580Y62500D02*
D03*
X127420D02*
D03*
X124920Y25000D02*
D03*
X135080D02*
D03*
X107340Y30000D02*
D03*
X117500D02*
D03*
X60080Y75000D02*
D03*
X49920D02*
D03*
X125000Y30000D02*
D03*
X135160D02*
D03*
X7500Y37580D02*
D03*
Y27420D02*
D03*
X12500D02*
D03*
Y37580D02*
D03*
X32580Y30000D02*
D03*
X22420D02*
D03*
X45000Y75000D02*
D03*
X34840D02*
D03*
X30080D02*
D03*
X19920D02*
D03*
X52420Y27500D02*
D03*
X62580D02*
D03*
X19900Y37500D02*
D03*
X22500D02*
D03*
D41*
X196000Y51500D02*
D03*
Y53500D02*
D03*
Y49500D02*
D03*
Y55500D02*
D03*
X198000Y51500D02*
D03*
Y53500D02*
D03*
Y49500D02*
D03*
X106310Y85000D02*
D03*
X98690D02*
D03*
X85000Y17500D02*
D03*
X92620D02*
D03*
X85000Y12500D02*
D03*
X92620D02*
D03*
X85000Y5000D02*
D03*
X92620D02*
D03*
X7500Y55000D02*
D03*
X15120D02*
D03*
X7500Y62500D02*
D03*
X15120D02*
D03*
X137500Y72500D02*
D03*
X129880D02*
D03*
X57620Y70000D02*
D03*
X50000D02*
D03*
X92620Y25000D02*
D03*
X85000D02*
D03*
X15120Y45000D02*
D03*
X7500D02*
D03*
D42*
X198000Y55500D02*
D03*
D43*
X25100Y37500D02*
D03*
D44*
X59000Y63160D02*
D03*
Y60620D02*
D03*
Y58080D02*
D03*
Y53000D02*
D03*
Y47920D02*
D03*
Y45380D02*
D03*
Y50460D02*
D03*
Y55540D02*
D03*
D45*
Y42840D02*
D03*
D46*
X47500Y56750D02*
D03*
X46750Y59439D02*
D03*
X37484Y57500D02*
D03*
X40500Y51150D02*
D03*
X43500Y62250D02*
D03*
X33566Y78486D02*
D03*
X38234Y67000D02*
D03*
X37250Y68750D02*
D03*
X36000Y70250D02*
D03*
X35000Y71750D02*
D03*
X31750Y72750D02*
D03*
X31250Y67750D02*
D03*
X49750Y62000D02*
D03*
X51250Y65000D02*
D03*
X52000Y38000D02*
D03*
X53750Y39000D02*
D03*
Y54250D02*
D03*
X65130Y56069D02*
D03*
X65000Y34500D02*
D03*
Y75000D02*
D03*
X80000Y45500D02*
D03*
X80250Y51500D02*
D03*
X110000Y61250D02*
D03*
X62000Y71000D02*
D03*
X43750Y53766D02*
D03*
X42750Y48839D02*
D03*
X39586Y49531D02*
D03*
X50000Y38750D02*
D03*
X35734Y47500D02*
D03*
X35250Y45750D02*
D03*
X26750Y69000D02*
D03*
X29500Y56226D02*
D03*
X28250Y52250D02*
D03*
X30000Y61000D02*
D03*
X41000Y42750D02*
D03*
X38516Y39750D02*
D03*
X45250Y49250D02*
D03*
X41250Y48000D02*
D03*
X110000Y41250D02*
D03*
X54750Y58250D02*
D03*
X34250Y42250D02*
D03*
X45000Y28750D02*
D03*
X47500Y30000D02*
D03*
X70750Y26000D02*
D03*
X32750Y50750D02*
D03*
X45000Y26250D02*
D03*
X36250Y36250D02*
D03*
X43000Y25250D02*
D03*
X41250Y24000D02*
D03*
X60000Y15000D02*
D03*
X57810Y10533D02*
D03*
X76149Y80137D02*
D03*
D47*
X167500Y52500D02*
D03*
D48*
X150000Y35000D02*
D03*
X185000D02*
D03*
Y70000D02*
D03*
X150000D02*
D03*
X55000Y95000D02*
D03*
X5000D02*
D03*
X55000Y20000D02*
D03*
X5000Y15000D02*
D03*
M02*
